<svg xmlns="http://www.w3.org/2000/svg" version="1.1" xmlns:xlink="http://www.w3.org/1999/xlink" xmlns:svgjs="http://svgjs.dev/svgjs" viewBox="-1 0 16 9" preserveAspectRatio="xMidYMid slice" fill="rgb(70,70,70)" shape-rendering="crispEdges">
	<rect width="1" height="1" x="1" y="1"></rect>
	<rect width="1" height="1" x="3" y="1"></rect>
	<rect width="1" height="1" x="5" y="1"></rect>
	<rect width="1" height="1" x="9" y="1"></rect>
	<rect width="1" height="1" x="11" y="1"></rect>
	<rect width="1" height="1" x="13" y="1"></rect>
	<rect width="1" height="1" x="1" y="3"></rect>
	<rect width="1" height="1" x="3" y="3"></rect>
	<rect width="1" height="1" x="5" y="3"></rect>
	<rect width="1" height="1" x="9" y="3"></rect>
	<rect width="1" height="1" x="11" y="3"></rect>
	<rect width="1" height="1" x="13" y="3"></rect>
	<rect width="1" height="1" x="1" y="5"></rect>
	<rect width="1" height="1" x="3" y="5"></rect>
	<rect width="1" height="1" x="5" y="5"></rect>
	<rect width="1" height="1" x="9" y="5"></rect>
	<rect width="1" height="1" x="11" y="5"></rect>
	<rect width="1" height="1" x="13" y="5"></rect>
	<rect width="1" height="1" x="1" y="7"></rect>
	<rect width="1" height="1" x="3" y="7"></rect>
	<rect width="1" height="1" x="5" y="7"></rect>
</svg>